# xmcd
#
# Track frame offsets: 
#        150
#        13282
#        24842
#        36784
#        51038
#        65198
#        76857
#        86975
#        99144
#        112751
#        125464
#        137053
#        148956
#        163184
#        177072
#        189754
#
# Disc length: 2639 seconds
#
# Revision: 0
# Processed by: cddbd v1.5.2PL0 Copyright (c) Steve Scherf et al.
# Submitted via: ExactAudioCopy v0.99pb4
#
DISCID=cf0a4d10
DTITLE=Willie Nelson - 16 Early Treasures
DYEAR=1987
DGENRE=Classic Country
TTITLE0=You'll Always Have Someone
TTITLE1=Is There Something On Your Mind
TTITLE2=I Hope So
TTITLE3=So Much to Do
TTITLE4=Rainy Day Blues
TTITLE5=Some Other Time
TTITLE6=I Didn't Sleep a Wink
TTITLE7=Follow Me Around
TTITLE8=Everything But You
TTITLE9=Any Old Arms Won't Do
TTITLE10=Night Life
TTITLE11=End of Understanding
TTITLE12=Will You Remember Mine
TTITLE13=A Moment Isn't Very Long
TTITLE14=Shelter of My Arms
TTITLE15=You Wouldn't Cross the Street
EXTD=
EXTT0=
EXTT1=
EXTT2=
EXTT3=
EXTT4=
EXTT5=
EXTT6=
EXTT7=
EXTT8=
EXTT9=
EXTT10=
EXTT11=
EXTT12=
EXTT13=
EXTT14=
EXTT15=
PLAYORDER=
